<svg width="1280" height="760" viewBox="0 0 1280 760" fill="none" xmlns="http://www.w3.org/2000/svg" role="img" aria-label="NoticeFlow 界面结构预览">
  <rect width="1280" height="760" rx="28" fill="#F7F8FA"/>
  <rect x="42" y="42" width="1196" height="676" rx="20" fill="#FFFFFF" stroke="#DCE4DF"/>
  <rect x="42" y="42" width="1196" height="64" rx="20" fill="#101820"/>
  <circle cx="78" cy="74" r="8" fill="#FF6B2C"/>
  <circle cx="106" cy="74" r="8" fill="#F4B533"/>
  <circle cx="134" cy="74" r="8" fill="#1D8F57"/>
  <text x="178" y="81" fill="#EAF8EF" font-family="-apple-system, BlinkMacSystemFont, Segoe UI, sans-serif" font-size="22" font-weight="700">NoticeFlow</text>
  <rect x="1025" y="61" width="84" height="28" rx="8" fill="#1D8F57"/>
  <text x="1044" y="81" fill="#FFFFFF" font-family="-apple-system, BlinkMacSystemFont, Segoe UI, sans-serif" font-size="14" font-weight="700">新建规则</text>
  <rect x="1120" y="61" width="70" height="28" rx="8" fill="#26333B"/>
  <text x="1142" y="81" fill="#EAF8EF" font-family="-apple-system, BlinkMacSystemFont, Segoe UI, sans-serif" font-size="14" font-weight="700">设置</text>

  <rect x="78" y="140" width="378" height="536" rx="14" fill="#F6F8F7" stroke="#DCE4DF"/>
  <text x="102" y="178" fill="#14201B" font-family="-apple-system, BlinkMacSystemFont, Segoe UI, sans-serif" font-size="22" font-weight="800">通知列表</text>
  <text x="102" y="206" fill="#5C6B63" font-family="-apple-system, BlinkMacSystemFont, Segoe UI, sans-serif" font-size="15">读取本机通知，选择样本调试规则</text>
  <rect x="102" y="230" width="330" height="74" rx="10" fill="#FFFFFF" stroke="#DCE4DF"/>
  <rect x="118" y="248" width="44" height="44" rx="10" fill="#0A0A0F"/>
  <rect x="171" y="248" width="152" height="12" rx="6" fill="#14201B"/>
  <rect x="171" y="271" width="230" height="10" rx="5" fill="#9AA7A0"/>
  <rect x="102" y="318" width="330" height="74" rx="10" fill="#FFFFFF" stroke="#1D8F57"/>
  <rect x="118" y="336" width="44" height="44" rx="10" fill="#EEF4EF"/>
  <rect x="171" y="336" width="126" height="12" rx="6" fill="#14201B"/>
  <rect x="171" y="359" width="246" height="10" rx="5" fill="#9AA7A0"/>
  <rect x="102" y="406" width="330" height="74" rx="10" fill="#FFFFFF" stroke="#DCE4DF"/>
  <rect x="118" y="424" width="44" height="44" rx="10" fill="#E8EEF5"/>
  <rect x="171" y="424" width="176" height="12" rx="6" fill="#14201B"/>
  <rect x="171" y="447" width="214" height="10" rx="5" fill="#9AA7A0"/>

  <rect x="490" y="140" width="320" height="536" rx="14" fill="#FFFFFF" stroke="#DCE4DF"/>
  <text x="514" y="178" fill="#14201B" font-family="-apple-system, BlinkMacSystemFont, Segoe UI, sans-serif" font-size="22" font-weight="800">规则卡片</text>
  <text x="514" y="206" fill="#5C6B63" font-family="-apple-system, BlinkMacSystemFont, Segoe UI, sans-serif" font-size="15">按顺序匹配并执行动作</text>
  <rect x="514" y="230" width="272" height="128" rx="12" fill="#F8FAF9" stroke="#DCE4DF"/>
  <rect x="538" y="254" width="142" height="16" rx="8" fill="#14201B"/>
  <rect x="538" y="284" width="214" height="10" rx="5" fill="#9AA7A0"/>
  <rect x="538" y="310" width="72" height="24" rx="12" fill="#EEF4EF"/>
  <text x="556" y="327" fill="#0F6D41" font-family="-apple-system, BlinkMacSystemFont, Segoe UI, sans-serif" font-size="13" font-weight="700">启用</text>
  <rect x="514" y="378" width="272" height="128" rx="12" fill="#F8FAF9" stroke="#1D8F57"/>
  <rect x="538" y="402" width="170" height="16" rx="8" fill="#14201B"/>
  <rect x="538" y="432" width="226" height="10" rx="5" fill="#9AA7A0"/>
  <rect x="538" y="458" width="92" height="24" rx="12" fill="#EEF4EF"/>
  <text x="555" y="475" fill="#0F6D41" font-family="-apple-system, BlinkMacSystemFont, Segoe UI, sans-serif" font-size="13" font-weight="700">已测试</text>
  <rect x="514" y="526" width="272" height="104" rx="12" fill="#F8FAF9" stroke="#DCE4DF"/>
  <rect x="538" y="550" width="130" height="16" rx="8" fill="#14201B"/>
  <rect x="538" y="580" width="198" height="10" rx="5" fill="#9AA7A0"/>

  <rect x="844" y="140" width="356" height="536" rx="14" fill="#F6F8F7" stroke="#DCE4DF"/>
  <text x="868" y="178" fill="#14201B" font-family="-apple-system, BlinkMacSystemFont, Segoe UI, sans-serif" font-size="22" font-weight="800">动作与结果</text>
  <text x="868" y="206" fill="#5C6B63" font-family="-apple-system, BlinkMacSystemFont, Segoe UI, sans-serif" font-size="15">脚本、URL、HTTP、本地通知都有反馈</text>
  <rect x="868" y="230" width="308" height="78" rx="12" fill="#FFFFFF" stroke="#DCE4DF"/>
  <circle cx="902" cy="269" r="13" fill="#1D8F57"/>
  <rect x="928" y="250" width="126" height="12" rx="6" fill="#14201B"/>
  <rect x="928" y="274" width="206" height="10" rx="5" fill="#9AA7A0"/>
  <rect x="868" y="326" width="308" height="78" rx="12" fill="#FFFFFF" stroke="#DCE4DF"/>
  <circle cx="902" cy="365" r="13" fill="#F4B533"/>
  <rect x="928" y="346" width="152" height="12" rx="6" fill="#14201B"/>
  <rect x="928" y="370" width="230" height="10" rx="5" fill="#9AA7A0"/>
  <rect x="868" y="428" width="308" height="174" rx="12" fill="#102018"/>
  <text x="892" y="466" fill="#EAF8EF" font-family="SFMono-Regular, Consolas, monospace" font-size="16">open "{{url}}"</text>
  <text x="892" y="500" fill="#A8DAB8" font-family="SFMono-Regular, Consolas, monospace" font-size="16">echo "{{urls_,}}"</text>
  <text x="892" y="534" fill="#A8DAB8" font-family="SFMono-Regular, Consolas, monospace" font-size="16">curl -X POST ...</text>
  <rect x="868" y="622" width="150" height="30" rx="8" fill="#1D8F57"/>
  <text x="904" y="643" fill="#FFFFFF" font-family="-apple-system, BlinkMacSystemFont, Segoe UI, sans-serif" font-size="14" font-weight="700">查看执行历史</text>
</svg>
